# xmcd
# 
# Track frame offsets:
#     182
#     19832
#     42437
#     65180
#     95105
#     116770
#     141140
#     165760
#     189542
#     212167
#     230860
#     259090
#     283067
#     303790
#     327617
# 
# Disc length: 4570
# 
# Revision: 10
# Processed by: cddbd v1.5.2PL0 Copyright (c) Steve Scherf et al.
# Submitted via: fre:ac v1.1beta2
# 
DISCID=e711d80f
DTITLE=Kenny G - Breathless
DYEAR=1992
DGENRE=Smooth Jazz
TTITLE0=The Joy Of Life
TTITLE1=Forever In Love
TTITLE2=In The Rain
TTITLE3=Sentimental
TTITLE4=By The Time This Nights Is Over
TTITLE5=End Of The Night
TTITLE6=Alone
TTITLE7=Morning
TTITLE8=Even If My Heart Would Break
TTITLE9=G-Bop
TTITLE10=Sister Rose
TTITLE11=A Year Ago
TTITLE12=Homeland
TTITLE13=Natural Ride
TTITLE14=The Wedding Song
EXTD=Año: 1992
EXTT0=
EXTT1=
EXTT2=
EXTT3=
EXTT4=with Peabo Bryson
EXTT5=
EXTT6=
EXTT7=
EXTT8=
EXTT9=
EXTT10=
EXTT11=
EXTT12=
EXTT13=
EXTT14=Not on the U.S. album
PLAYORDER=
